:SAMPLES-PER-SECOND 30
:FULLY-SPECIFIED
:DEGREES
509
root  21.8661 38.4747 -6.34208 2.83826 63.6531 11.5201
RightUpLeg  -15.7351 -1.49441 -6.93389
RightLeg  11.871 4.49227 0.624537
RightFoot  -0.456452 -0.543363 5.67247
RightToes  1.45519e-009 0 -3.6325e-017
Spine  6.85209 -0.828648 -6.96696
Spine1  7.97611 -1.42942 0.432241
HEad  -32.1303 14.8276 -15.393
LeftShoulder1  -0.474123 4.84715 -29.1329
LeftArm  12.3655 -6.40986 -53.2953
LeftForeArm  21.1861 -30.3256 -5.43291
LeftHand  -0.0223288 7.61547 0.914945
RightShoulder  -0.816295 -5.95815 26.6436
RightArm  2.47158 -8.98047 38.1644
RightForeArm  16.9888 60.55 18.7258
RightHand  0.00723361 2.06566 -0.0519432
LeftUpLeg  11.9655 3.89028 -10.8693
LeftLeg  13.2664 -7.92327 -1.811
LeftFoot  -13.2981 0.267083 10.8989
LeftToes  -2.53752e-010 -2.07034e-011 -2.70101e-011
510
root  23.0065 38.348 -5.83071 2.7641 63.9825 11.2131
RightUpLeg  -14.3228 -7.9183 -4.78831
RightLeg  2.99825 8.308 1.00687
RightFoot  -0.898904 -0.764286 8.19687
RightToes  1.45519e-009 0 -3.6325e-017
Spine  6.5344 -0.832512 -6.00512
Spine1  8.18874 -1.31371 0.459427
HEad  -31.5488 14.9449 -15.3322
LeftShoulder1  -0.481851 4.86983 -29.0944
LeftArm  11.33 -5.993 -53.2922
LeftForeArm  21.7867 -32.0257 -5.81126
LeftHand  -0.0107004 8.16983 1.33224
RightShoulder  -0.886592 -6.14111 27.0321
RightArm  1.29554 -12.0431 37.8969
RightForeArm  16.5864 61.5813 19.7074
RightHand  -0.039284 2.3711 -0.805571
LeftUpLeg  14.3365 4.34611 -10.3302
LeftLeg  12.4328 -8.84047 -1.9462
LeftFoot  -14.3473 0.362789 10.5316
LeftToes  -2.53752e-010 -2.07034e-011 -2.70101e-011
511
root  24.163 38.1719 -5.24104 2.37109 63.8568 10.436
RightUpLeg  -13.495 -7.07491 -3.69892
RightLeg  -0.913317 4.25841 1.13797
RightFoot  0.0284554 -0.854729 9.07751
RightToes  1.45519e-009 0 -3.6325e-017
Spine  5.98559 -0.665044 -5.74327
Spine1  8.49853 -1.34318 1.47516
HEad  -30.6882 15.2851 -15.7584
LeftShoulder1  -0.563167 5.07728 -29.6331
LeftArm  10.8856 -5.40146 -52.8365
LeftForeArm  21.4766 -32.6244 -5.97831
LeftHand  0.00947535 8.27926 2.06303
RightShoulder  -0.923767 -6.23071 27.3048
RightArm  0.857634 -14.0502 37.6238
RightForeArm  16.5058 62.4603 20.5613
RightHand  -0.0969667 1.53055 -1.75543
LeftUpLeg  16.0282 4.82271 -9.58076
LeftLeg  12.8633 -9.37828 -2.19379
LeftFoot  -15.7385 0.469939 9.71712
LeftToes  -2.53752e-010 -2.07034e-011 -2.70101e-011
512
root  25.3042 38.1343 -4.72389 0.587769 63.4133 8.32079
RightUpLeg  -14.9335 -6.01595 -1.6866
RightLeg  3.5531 2.76452 1.1855
RightFoot  5.15915 0.12423 -0.704856
RightToes  1.45519e-009 0 -3.6325e-017
Spine  5.81647 -0.845927 -4.00623
Spine1  9.06442 -1.56019 1.90167
HEad  -29.904 15.7373 -15.9049
LeftShoulder1  -0.608698 5.19983 -29.7262
LeftArm  9.96724 -4.18682 -52.1993
LeftForeArm  21.8762 -32.0559 -5.81429
LeftHand  -0.00424335 8.09543 1.6136
RightShoulder  -0.915476 -6.18353 27.5892
RightArm  1.32025 -14.3038 37.8516
RightForeArm  15.8698 61.9276 20.1242
RightHand  -0.119672 2.01931 -2.06429
LeftUpLeg  17.8754 4.47792 -8.86473
LeftLeg  12.9264 -8.9938 -1.95968
LeftFoot  -15.9872 0.433512 8.32378
LeftToes  -2.53752e-010 -2.07034e-011 -2.70101e-011
513
root  26.5649 37.9484 -4.17353 -2.15338 62.9133 5.70934
RightUpLeg  -15.9014 -5.77976 -0.283717
RightLeg  9.14936 4.66352 1.64586
RightFoot  9.38567 0.657197 -3.324
RightToes  1.45519e-009 0 -3.6325e-017
Spine  6.09943 -1.18064 -1.77897
Spine1  9.24581 -1.73498 1.81762
HEad  -28.8683 16.3406 -16.3647
LeftShoulder1  -0.645928 5.28752 -30.05
LeftArm  10.4374 -2.99998 -51.4562
LeftForeArm  20.3822 -29.8321 -5.33378
LeftHand  -0.0130155 8.23406 1.22477
RightShoulder  -0.911938 -6.1611 27.7437
RightArm  2.30385 -13.5813 38.0353
RightForeArm  15.0786 60.7488 19.1093
RightHand  -0.101351 2.64267 -1.67187
LeftUpLeg  19.155 4.66731 -7.47964
LeftLeg  15.9164 -9.36702 -2.65144
LeftFoot  -16.7944 0.408306 6.48808
LeftToes  -2.53752e-010 -2.07034e-011 -2.70101e-011
